<?xml version="1.0" encoding="utf-8"?>
<!-- Generator: Adobe Illustrator 24.3.0, SVG Export Plug-In . SVG Version: 6.00 Build 0)  -->
<svg version="1.1" id="Layer_1" xmlns="http://www.w3.org/2000/svg" xmlns:xlink="http://www.w3.org/1999/xlink" x="0px" y="0px"
	 viewBox="0 0 542.5 551.2" style="enable-background:new 0 0 542.5 551.2;" xml:space="preserve">
<path d="M236.2,175c0,4.8-3.9,8.8-8.8,8.8s-8.8-3.9-8.8-8.8s3.9-8.8,8.8-8.8S236.2,170.2,236.2,175"/>
<path d="M323.7,175c0,4.8-3.9,8.8-8.8,8.8s-8.8-3.9-8.8-8.8s3.9-8.8,8.8-8.8S323.7,170.2,323.7,175"/>
<path d="M271.2,262.5c19.3,0,35-15.7,35-35h-17.5c0,9.7-7.8,17.5-17.5,17.5s-17.5-7.8-17.5-17.5h-17.5
	C236.2,246.8,251.9,262.5,271.2,262.5z"/>
<path d="M271.2,8.8C121.7,8.8,0,130.4,0,280s121.7,271.2,271.2,271.2S542.5,429.6,542.5,280S420.8,8.8,271.2,8.8z M525,280
	c0,63-23.1,120.6-61.2,165v-50.4c0-20.3-10-39.4-26.4-51.2c0-0.7,0.1-1.4,0.1-2.2v-7L323.7,308v-19.3h-0.2
	c19.3-14.5,32.5-36.7,34.8-62.1c0.1,0,0.3,0,0.4,0v28.7c-10.2,3.6-17.5,13.2-17.5,24.6c0,14.5,11.8,26.2,26.2,26.2
	s26.3-11.6,26.3-26.1c0-11.4-7.3-21-17.5-24.6v-36.8c10.6-8,17.5-20.5,17.5-34.8c0-9.9-3.4-18.9-9-26.2h0.2
	c9.7,0,17.5-7.8,17.5-17.5v-17.5c0-9.7-7.8-17.5-17.5-17.5h-9.2c-2.3-27.1-14.9-51.3-33.9-68.7C447.6,67,525,164.6,525,280L525,280z
	 M122.7,348.2l11.9-2.8c2.1,9.3,5.1,18.2,8.9,26.7l-15.5,8.6C125.1,370.3,123.2,359.4,122.7,348.2L122.7,348.2z M183.7,208.4
	c-10.2-3.6-17.5-13.2-17.5-24.6c0-11.4,7.3-21,17.5-24.6V208.4z M183.7,280c0,4.8-3.9,8.8-8.8,8.8s-8.8-3.9-8.8-8.8s3.9-8.8,8.8-8.8
	S183.7,275.2,183.7,280z M271.2,26.3c45.3,0,82.7,34.6,87.1,78.8H297c-2.3-20.5-12.6-35-25.8-35s-23.4,14.5-25.8,35h-61.3
	C188.6,60.8,226,26.3,271.2,26.3z M376.2,280c0,4.8-3.9,8.8-8.8,8.8s-8.8-3.9-8.8-8.8s3.9-8.8,8.8-8.8S376.2,275.2,376.2,280z
	 M358.7,208.4v-49.3c10.2,3.6,17.5,13.2,17.5,24.6C376.2,195.2,368.9,204.8,358.7,208.4z M323.7,140v-17.5h61.2V140H323.7z
	 M245.5,122.5c0.7,6.6,2.4,12.4,4.6,17.5h-13.8v-17.5H245.5z M262.5,113.8c0-16.9,6.6-26.2,8.8-26.2s8.8,9.3,8.8,26.2
	s-6.6,26.2-8.8,26.2S262.5,130.7,262.5,113.8z M297,122.5h9.2V140h-13.8C294.6,134.9,296.3,129.1,297,122.5L297,122.5z M218.7,122.5
	V140h-61.2v-17.5H218.7z M201.2,157.5h140v61.2c0,38.6-31.4,70-70,70s-70-31.4-70-70V157.5z M271.2,306.3c12.4,0,24.3-2.7,35-7.4
	v13.2c-4.3,5.5-17.7,20.4-35,20.4s-30.7-14.9-35-20.4v-13.2C247,303.6,258.8,306.3,271.2,306.3z M224,324.8
	c7.1,8.6,24,25.2,47.2,25.2s40.1-16.6,47.2-25.2l21.2,4.9c-6.8,32-35.1,55.3-68.4,55.3s-61.7-23.3-68.5-55.3L224,324.8z
	 M386.9,434.4l-16.4-21c7.7-7.8,14.5-16.5,20.2-25.9l18,10C403.3,410.9,395.9,423.3,386.9,434.4L386.9,434.4z M133.7,397.5l18-10
	c5.8,9.4,12.5,18.1,20.2,25.9l-16.4,21C146.6,423.3,139.2,410.9,133.7,397.5L133.7,397.5z M204.5,371.5l-21.8,28
	c-6-6.2-11.2-13.1-15.8-20.5l30.5-16.9C199.6,365.4,202,368.6,204.5,371.5L204.5,371.5z M217.2,383.8c2.8,2.2,5.7,4.2,8.7,6.1
	l-9.4,34.6c-7.3-3.7-14.2-8.1-20.6-13.2L217.2,383.8z M241.9,397.4c6.5,2.3,13.4,3.9,20.6,4.6v35c-10.3-0.7-20.3-2.8-29.8-6
	L241.9,397.4z M280,402c7.1-0.7,14-2.3,20.6-4.6l9.2,33.7c-9.5,3.2-19.5,5.2-29.8,6L280,402z M316.6,389.8c3-1.8,5.9-3.9,8.7-6.1
	l21.4,27.5c-6.4,5-13.3,9.5-20.6,13.2L316.6,389.8z M345,362.1l30.5,16.9c-4.6,7.4-9.8,14.3-15.8,20.5l-21.8-28
	C340.5,368.6,342.9,365.4,345,362.1L345,362.1z M414.5,380.7l-15.5-8.6c3.8-8.5,6.8-17.4,8.9-26.7l11.9,2.8
	C419.3,359.4,417.4,370.3,414.5,380.7L414.5,380.7z M383.7,363.6l-30.8-17.1c1.6-4.1,2.9-8.4,3.9-12.8l34.1,7.9
	C389.2,349.2,386.8,356.6,383.7,363.6L383.7,363.6z M185.8,333.6c1,4.4,2.3,8.7,3.9,12.8l-30.8,17.1c-3.1-7-5.4-14.4-7.1-22.1
	L185.8,333.6z M140,442.9v54.2c-15.8-9.6-30.4-20.9-43.8-33.6v-68.9c0-10.8,4-21.1,10.7-29.2C111.2,394.3,122.8,420.8,140,442.9
	L140,442.9z M185.1,425c8.2,6.4,17.1,12,26.7,16.5l-8.7,31.8c-13.1-6.8-25.1-15.5-35.6-25.7L185.1,425z M228.1,448
	c11,3.6,22.5,5.8,34.4,6.6v35c-15.1-0.9-29.6-4-43.2-9.1L228.1,448z M280,454.6c11.9-0.7,23.4-3,34.4-6.6l8.9,32.5
	c-13.6,5.1-28.1,8.2-43.2,9.1L280,454.6L280,454.6z M339.4,473.4l-8.7-31.8c9.5-4.5,18.4-10.1,26.7-16.5l17.6,22.6
	C364.5,457.9,352.5,466.6,339.4,473.4L339.4,473.4z M402.5,442.9c17.2-22.1,28.8-48.6,33-77.5c6.7,8.1,10.7,18.4,10.7,29.2v68.9
	c-13.3,12.7-27.9,24-43.8,33.6L402.5,442.9z M200.5,36.3c-19,17.4-31.6,41.5-33.8,68.7h-9.2c-9.7,0-17.5,7.8-17.5,17.5V140
	c0,9.7,7.8,17.5,17.5,17.5h0.2c-5.6,7.3-9,16.4-9,26.2c0,14.2,6.9,26.8,17.5,34.8v36.8c-10.1,3.7-17.5,13.3-17.5,24.7
	c0,14.5,11.8,26.2,26.2,26.2s26.2-11.8,26.2-26.2c0-11.4-7.3-21-17.5-24.6v-28.7c0.1,0,0.3,0,0.4,0c2.3,25.4,15.5,47.6,34.8,62.1
	h-0.1V308l-113.8,26.2v7c0,0.7,0.1,1.4,0.1,2.2c-16.2,11.8-26.3,30.9-26.3,51.2V445c-38.1-44.4-61.2-102-61.2-165
	C17.5,164.6,94.9,67.1,200.5,36.3L200.5,36.3z M157.5,506.7v-44.6c29.8,28,69.7,45.3,113.7,45.3s84-17.3,113.8-45.3v44.6
	c-34.2,17.3-72.9,27-113.8,27S191.7,524,157.5,506.7L157.5,506.7z"/>
</svg>
