<?xml version="1.0" encoding="utf-8"?>
<!-- Generator: Adobe Illustrator 24.3.0, SVG Export Plug-In . SVG Version: 6.00 Build 0)  -->
<svg version="1.1" id="Layer_1" xmlns="http://www.w3.org/2000/svg" xmlns:xlink="http://www.w3.org/1999/xlink" x="0px" y="0px"
	 viewBox="0 0 356 356" style="enable-background:new 0 0 356 356;" xml:space="preserve">
<path d="M178-0.3c-55.8,0-100.8,45.5-100.8,101.7v20.8c0,41.8-12.9,62.2-26.5,84.3c-13.5,22.1-27.6,46.1-27.6,91.1
	c0,2.2,2,4.4,4.4,4.4h113v16.3c0,20.8,16.8,37.9,37.5,37.9s37.5-17.1,37.5-37.9v-16.3h112.8c2.4,0,4.5-2.2,4.5-4.4
	c0-45-14.3-69-27.7-91.1c-13.5-22.1-26.3-42.5-26.3-84.3v-20.8C278.8,45.2,233.8-0.3,178-0.3L178-0.3z M178,8.7
	c50.9,0,91.8,41.2,91.8,92.7v20.8c0,43.7,14.3,67,27.7,89.1c8.6,14.1,16.8,28.1,21.6,47.5H36.6c4.9-19.4,13.2-33.5,21.8-47.5
	C71.9,189.2,86,166,86,122.3v-20.8C86,49.9,126.9,8.7,178,8.7L178,8.7z M34.8,267.7h286.3c1.4,7.6,2.4,15.9,2.5,25.4H32.2
	C32.5,283.6,33.3,275.3,34.8,267.7L34.8,267.7z M149.3,302.1h57.2v16.3c0,16.1-12.7,29.1-28.5,29.1c-16,0-28.7-13-28.7-29.1V302.1z"
	/>
</svg>
