<?xml version="1.0" encoding="utf-8"?>
<!-- Generator: Adobe Illustrator 24.3.0, SVG Export Plug-In . SVG Version: 6.00 Build 0)  -->
<svg version="1.1" id="Layer_1" xmlns="http://www.w3.org/2000/svg" xmlns:xlink="http://www.w3.org/1999/xlink" x="0px" y="0px"
	 viewBox="0 0 428.1 428.1" style="enable-background:new 0 0 428.1 428.1;" xml:space="preserve">
<path d="M71.2,342.3h285.6c5,0,9.5-2.8,12.3-7.3c2.2-4.5,2.2-9.5,0-14l-27.4-47V160.8c0-65.5-49.8-119.3-113.1-126.6v-9
	c0-7.8-6.2-14-14-14s-14,6.2-14,14v9c-64.4,7.3-113.7,61-113.7,126.6V274l-27.4,47c-2.8,4.5-2.8,9.5,0,14
	C61.7,339.5,66.1,342.3,71.2,342.3L71.2,342.3z M112.6,284.6c1.1-2.2,1.7-4.5,1.7-7.3V160.8c0-54.9,44.2-99.1,99.1-99.1
	c54.9,0,99.7,44.2,99.7,99.1v117c0,2.2,0.6,5,1.7,7.3l17.4,29.7H95.8L112.6,284.6z"/>
<path d="M239.2,363.6c0,14-11.2,25.2-25.2,25.2s-25.2-11.2-25.2-25.2c0-7.8-6.2-14-14-14s-14,6.2-14,14c0,29.1,24.1,53.2,53.2,53.2
	s53.2-24.1,53.2-53.2c0-7.8-6.2-14-14-14C245.3,349.6,239.2,356.3,239.2,363.6z"/>
<path d="M214,80.2c-7.8,0-14,6.2-14,14s6.2,14,14,14c27.4,0,49.8,22.4,49.8,49.8c0,7.8,6.2,14,14,14s14-6.2,14-14
	C291.8,115.5,257.1,80.2,214,80.2z"/>
</svg>
