<?xml version="1.0" encoding="utf-8"?>
<!-- Generator: Adobe Illustrator 24.3.0, SVG Export Plug-In . SVG Version: 6.00 Build 0)  -->
<svg version="1.1" id="Layer_1" xmlns="http://www.w3.org/2000/svg" xmlns:xlink="http://www.w3.org/1999/xlink" x="0px" y="0px"
	 viewBox="0 0 424 534.8" style="enable-background:new 0 0 424 534.8;" xml:space="preserve">
<path d="M314,525c-4.8,0-9.1-2.7-11.2-7l-41.7-83.6c-1.6-3.4-1.6-7.4,0-10.8c-12.9-0.1-25.4-4.2-35.8-11.7
	c-23.1-16.8-29.2-46-30.1-51.1c-28.7,0.1-56.8-8.3-80.7-24.1l5-6.8c0.4,0.3,39.5,28,87.4,21.6l-42.7-31.8l5-6.7l48.9,36.4
	c1.5-0.3,3.1-0.8,4.6-1.2c0.6-2.5,1.1-4.5,1.5-5.6l-28.5-59.3c-40.2,13.1-84.3,4.9-117.1-21.8c-32.8-26.7-49.8-68.3-45-110.3
	c4.7-42,30.5-78.8,68.4-97.5c38.5-19.5,84.4-17.6,121.2,5c36.8,22.6,59.2,62.7,59.2,105.9c0,43.2-22.4,83.3-59.2,105.9l29.3,57.8
	c1.2,0.4,3.1,1.2,5.2,2.2l2.7-2.2l0.6-65.8h8.4l-0.5,58.1c34.3-34.4,36.8-82.7,36.8-83.3l8.4,0.3h0c-2.5,28.5-13,55.6-30.2,78.4
	c5.3,5.6,24,28.4,23.6,56.3c-0.2,12.6-4.3,24.7-11.8,34.8c3.1,1.1,5.6,3.3,7,6.3l41.6,83.6v0c3,6.2,0.5,13.7-5.6,16.8l-19.2,9.5v0
	C317.9,524.3,316,524.9,314,525L314,525z M304.7,503.1l5.6,11.2c1,2,3.5,2.9,5.6,1.9l19.2-9.5c2.1-1,2.9-3.5,1.9-5.6l-5.6-11.2
	L304.7,503.1z M279.6,452.7l21.3,43l26.8-13.3l-21.1-42.5c-9.8-4.6-18.2-11.8-24.4-20.7l-3.9,2c3.3,10.1,3.8,21,1.4,31.4
	L279.6,452.7z M270.8,425L270.8,425c-1,0.5-1.8,1.3-2.1,2.4c-0.4,1.1-0.3,2.2,0.2,3.2l4.1,8.4c0-4.8-0.7-9.6-2.2-14.2L270.8,425z
	 M289.7,415.7L289.7,415.7c2.7,4.1,6.1,7.6,10.1,10.6l-4.4-8.7v0c-1-2.1-3.5-2.9-5.6-1.9L289.7,415.7z M203.5,360.3
	c1.3,6.3,7.4,30.9,26.6,44.8c10.4,7.4,23.1,11,35.9,10.1c-4.4-6.1-10.5-10.9-17.5-13.8c-8.8-3.3-16.2-9.5-21.1-17.5
	c-4.9-8-7-17.4-5.9-26.8C215.6,358.7,209.6,359.7,203.5,360.3L203.5,360.3z M230,354.7c-1.6,8.1-0.2,16.4,3.8,23.6
	c4,7.2,10.4,12.7,18.1,15.6c9.7,3.9,17.8,10.9,23.1,19.8l3.4-1.7c-3.8-9.7-4.4-20.4-1.7-30.4c2.3-7.9,1.8-16.4-1.5-23.9
	c-3.3-7.6-9.1-13.7-16.5-17.4c-2.9,2-5.9,3.9-9,5.6l21.1,10.1l-6.4,32.2L234.5,374l4.9-22.9c-3.2,1.2-6.3,2.5-9.5,3.5L230,354.7z
	 M265.7,334.9L265.7,334.9c8.1,4.8,14.4,12.2,17.9,21s3.9,18.5,1.2,27.6c-2.1,7.8-1.9,16,0.6,23.7c8.6-9.6,13.4-21.9,13.8-34.7
	c0.3-23.5-15.3-43.6-20.7-49.7v0c-3.9,4.3-8.2,8.4-12.7,12.1L265.7,334.9z M244.1,369.2l14.1,6.7l3-15.2l-13.9-6.6L244.1,369.2z
	 M203.8,280.4l29.6,61.6l-0.7,1.7l-0.4,1.3c2.7-1.1,5.6-2.2,8.1-3.6c2.5-1.3,6.3-3.4,9.2-5.2l-1.1-0.2l-1.8-0.5L216,274.4l-3.2,1.7
	c-2.9,1.7-5.8,3-8.9,4.2L203.8,280.4z M157.3,49c-17.7,0-35.2,4.2-51.1,12c-34.3,17-58.1,49.8-63.5,87.8
	C37.3,186.8,51,225,79.3,250.8c28.3,25.9,67.5,36.1,104.8,27.4s67.9-35.3,81.8-71c13.9-35.7,9.2-76-12.5-107.6
	c-21.7-31.6-57.5-50.5-95.8-50.5L157.3,49z M157.3,273.7c-11.8,0-23.6-1.9-34.8-5.6c-34.7-11.6-61.2-39.9-70.4-75.3
	c-9.2-35.4,0-73.1,24.6-100.1c24.6-27.1,61.2-39.9,97.3-34.1c36.1,5.8,66.8,29.5,81.7,62.9c14.9,33.4,11.8,72.1-8,102.8
	C227.9,254.9,193.8,273.5,157.3,273.7L157.3,273.7z M157.3,64.7c-30.6,0-59.6,14-78.6,38.1c-19,24-26,55.4-19,85.2
	c7,29.8,27.3,54.8,55,67.8c27.7,13,59.9,12.6,87.3-1c27.2-13.5,46.9-38.6,53.4-68.3c6.5-29.7-0.8-60.8-19.9-84.4
	C216.5,78.3,187.7,64.6,157.3,64.7L157.3,64.7z M218.1,227.1c-5.2,0-9.9-3.2-12-8c-2-4.8-0.9-10.4,2.8-14.1
	c3.7-3.7,9.3-4.8,14.1-2.8c4.8,2,8,6.7,8,11.9C231,221.3,225.3,227.1,218.1,227.1L218.1,227.1z M218.1,209.7c-1.8,0-3.5,1.1-4.2,2.8
	c-0.7,1.7-0.3,3.6,1,4.9s3.2,1.7,4.9,1s2.8-2.4,2.8-4.2c0-1.2-0.5-2.4-1.3-3.2C220.5,210.1,219.3,209.7,218.1,209.7L218.1,209.7z
	 M229.7,192c-5.4,0-10.6-2.2-14.4-6c-3.8-3.8-5.9-9-5.9-14.4c0-5.4,2.2-10.6,6-14.4c3.8-3.8,9-6,14.4-6s10.6,2.2,14.4,6
	c3.8,3.8,6,9,6,14.4c0,5.4-2.2,10.6-6,14.4C240.3,189.8,235.1,192,229.7,192L229.7,192z M229.7,159.6c-4.8,0-9.2,3-11,7.4
	c-1.8,4.5-0.8,9.6,2.6,13c3.4,3.4,8.6,4.4,13.1,2.6c4.5-1.9,7.4-6.2,7.4-11.1c0-3.2-1.3-6.2-3.5-8.5
	C236,160.8,232.9,159.6,229.7,159.6L229.7,159.6z M129.8,189.6c-13.4,0.1-26.6-2.2-39.2-6.7l-3.9-1.6l1.6-3.9
	c11.6-25.3,32.5-45.2,58.2-55.6c25.2-9.9,53.4-8.9,77.9,2.7l3.5,1.8l-1.6,3.6c-12.1,23.8-32.4,42.3-57.1,52.4
	C156.5,187.2,143.2,189.6,129.8,189.6L129.8,189.6z M98,176.5c17,5,35,5.8,52.4,2.5c-1.5-0.3-2.9-0.8-4.3-1.5
	c-7.4-3.2-13-9.6-15.3-17.3c-2.3-7.7-1.1-16.1,3.3-22.9C119,147.1,106.5,160.6,98,176.5L98,176.5z M150.3,134.4
	c-4.8,1.8-8.7,5.4-10.8,10.1s-2.3,10-0.4,14.8c1.8,4.8,5.5,8.6,10.1,10.6c4.7,2,10,2.1,14.7,0.3c5.9-2.8,10-8.4,10.8-14.8
	c0.9-6.5-1.6-12.9-6.5-17.1C163.3,134,156.6,132.6,150.3,134.4L150.3,134.4z M163.6,125.4L163.6,125.4c1.6,0.4,3.2,0.9,4.8,1.6
	c6.7,2.9,12,8.4,14.6,15.2c2.7,6.8,2.5,14.4-0.4,21.1c-0.6,1.4-1.3,2.7-2.1,4c14.9-9.2,27.4-22,36.2-37.1
	C199.8,123.5,181.3,121.9,163.6,125.4L163.6,125.4z M157.3,165.5c-6.4,0-11.8-4.5-13-10.8c-1.2-6.3,2.3-12.5,8.2-14.8
	c6.8-2.7,14.5,0.7,17.2,7.5c2.7,6.8-0.7,14.5-7.5,17.2C160.6,165.2,158.9,165.6,157.3,165.5L157.3,165.5z M155.5,147.8L155.5,147.8
	c-1.2,0.4-2.2,1.4-2.7,2.5c-0.5,1.2-0.5,2.5,0,3.7c1,2.5,3.7,3.7,6.2,2.7c1.3-0.4,2.3-1.3,2.9-2.5c0.6-1.2,0.6-2.6,0.2-3.8
	c-0.5-1.2-1.5-2.2-2.7-2.7C158.2,147.2,156.8,147.3,155.5,147.8L155.5,147.8z"/>
</svg>
