<?xml version="1.0" encoding="utf-8"?>
<!-- Generator: Adobe Illustrator 24.3.0, SVG Export Plug-In . SVG Version: 6.00 Build 0)  -->
<svg version="1.1" id="Layer_1" xmlns="http://www.w3.org/2000/svg" xmlns:xlink="http://www.w3.org/1999/xlink" x="0px" y="0px"
	 viewBox="0 0 542.5 551.2" style="enable-background:new 0 0 542.5 551.2;" xml:space="preserve">
<path d="M236.2,201.2c0,4.8-3.9,8.8-8.8,8.8s-8.8-3.9-8.8-8.8s3.9-8.8,8.8-8.8S236.2,196.4,236.2,201.2"/>
<path d="M323.8,201.2c0,4.8-3.9,8.8-8.8,8.8s-8.8-3.9-8.8-8.8s3.9-8.8,8.8-8.8S323.8,196.4,323.8,201.2"/>
<path d="M271.2,288.8c19.3,0,35-15.7,35-35h-17.5c0,9.7-7.8,17.5-17.5,17.5s-17.5-7.8-17.5-17.5h-17.5
	C236.2,273.1,251.9,288.8,271.2,288.8z"/>
<path d="M271.2,8.8C121.7,8.8,0,130.4,0,280s121.7,271.2,271.2,271.2S542.5,429.6,542.5,280S420.8,8.8,271.2,8.8z M525,280
	c0,63-23.1,120.6-61.2,165v-27.2c0-28.6-19.4-53.1-47.2-59.6l-5.5-1.3c-0.1-2.1-0.2-4.3-0.6-6.4c11.5-8.1,18.3-21.2,18.3-35.5
	c0-9.9-3.4-19.6-9.6-27.4c-16.6-20.7-25.4-43.5-25.4-65.9v-10.9l3.4-17.2c3.5-17.7,5.3-35.7,5.3-53.7c0-39.3-17.4-74.5-44.9-98.6
	C455.1,76.8,525,170.4,525,280L525,280z M157.5,140c0-62.7,51-113.8,113.8-113.8S385,77.3,385,140c0,13.4-1.1,26.9-3.2,40.1
	c-6.1-6.5-14-11.2-23-13v-2.5c10.2-3.6,17.5-13.2,17.5-24.6c0-14.5-11.8-26.2-26.2-26.2h-8.8v17.5h8.8c4.8,0,8.8,3.9,8.8,8.8
	s-3.9,8.8-8.8,8.8h-1.5c-2.3,0-4.6-0.9-6.2-2.6l-20.1-20.1c-13.6-13.6-31.7-21.1-51-21.1s-37.4,7.5-51,21.1l-20.1,20.1
	c-1.6,1.6-3.9,2.6-6.2,2.6h-1.5c-4.8,0-8.8-3.9-8.8-8.8s3.9-8.8,8.8-8.8h8.8v-17.5h-8.8c-14.5,0-26.2,11.8-26.2,26.2
	c0,11.4,7.3,21,17.5,24.6v2.5c-9,1.8-17,6.5-23,13C158.6,166.9,157.5,153.4,157.5,140L157.5,140z M396.3,338.5l-7.2,3.5l2.8,7.5
	c1.2,3.1,1.8,6.3,1.8,9.2c0,8-3.6,15.5-9.9,20.6c-6.4,5.1-14.4,6.9-22.7,5c-9.4-2.2-17.1-9.9-19.2-19.3
	c-3.2-14.3,4.8-25.2,14.2-29.8l-7.6-15.8c-8.4,4.1-14.9,10.6-19.2,18.3l-14.4-3.4v-13.7c23.9-13.9,40.7-38.8,43.3-67.8
	c0.1,0,0.3,0,0.4,0V280h17.5v-35H376c0.9-0.6,1.7-1.3,2.5-2c3.9,19.3,13,38.2,27,55.6c3.8,4.7,5.8,10.4,5.8,16.4
	C411.3,325.1,405.5,334.1,396.3,338.5L396.3,338.5z M271.2,446.2c-35.7,0-59.7-17.4-71.7-51.2c9-6.1,15.6-15.3,18.1-26.2
	c1.1-4.8,1.3-9.7,0.8-14.4l12.9-3c3.2,5.8,9,13.7,18.1,19.1c-2.8,4.2-4.4,9.2-4.4,14.5v17.5c0,14.5,11.8,26.2,26.2,26.2
	s26.2-11.8,26.2-26.2V385c0-5.4-1.6-10.4-4.4-14.5c9.1-5.3,14.9-13.3,18.1-19.1l12.9,3c-0.5,4.7-0.3,9.5,0.8,14.4
	c2.5,10.9,9.1,20.1,18.1,26.2C331,428.9,307,446.2,271.2,446.2L271.2,446.2z M183.8,234.6c-10.2-3.6-17.5-13.2-17.5-24.6
	c0-11.4,7.3-21,17.5-24.6V234.6z M201.2,165.1c4.2-1.2,8.1-3.4,11.3-6.6l20.1-20.1c8.2-8.2,18.6-13.4,29.9-15.2v18.4
	c-10.2,3.6-17.5,13.2-17.5,24.6c0,14.5,11.8,26.2,26.2,26.2s26.2-11.8,26.2-26.2c0-11.4-7.3-21-17.5-24.6v-18.4
	c11.3,1.8,21.7,7,29.9,15.2l20.1,20.1c3.2,3.2,7.1,5.3,11.3,6.6l0,79.9c0,38.6-31.4,70-70,70s-70-31.4-70-70L201.2,165.1z
	 M280,166.2c0,4.8-3.9,8.8-8.8,8.8s-8.8-3.9-8.8-8.8s3.9-8.8,8.8-8.8S280,161.4,280,166.2z M358.8,234.6v-49.3
	c10.2,3.6,17.5,13.2,17.5,24.6C376.2,221.4,368.9,231,358.8,234.6z M271.2,332.5c9.1,0,18-1.4,26.2-4v11.2
	c-1.8,4.3-9.3,19.1-26.2,19.1S246.8,344,245,339.6v-11.2C253.3,331.1,262.1,332.5,271.2,332.5L271.2,332.5z M280,385v17.5
	c0,4.8-3.9,8.8-8.8,8.8s-8.8-3.9-8.8-8.8V385c0-4.8,3.9-8.8,8.8-8.8S280,380.2,280,385z M164,242.9c0.8,0.7,1.6,1.4,2.5,2h-0.3v35
	h17.5v-27.1c0.1,0,0.3,0,0.4,0c2.6,29,19.4,53.8,43.3,67.8v13.7l-14.4,3.4c-4.3-7.7-10.7-14.2-19.2-18.3l-7.6,15.8
	c9.4,4.5,17.4,15.5,14.2,29.8c-2.1,9.4-9.9,17.2-19.2,19.3c-8.2,1.9-16.3,0.1-22.7-5c-6.3-5-9.9-12.5-9.9-20.6c0-3,0.6-6.1,1.8-9.2
	l2.8-7.5l-7.2-3.5c-9.2-4.4-14.9-13.5-14.9-23.5c0-6,2-11.7,5.8-16.4C151,281.1,160.1,262.2,164,242.9L164,242.9z M175.1,402.5
	c2.7,0,5.4-0.3,8.2-0.8c2,5.6,4.3,10.8,7,15.7l-24.8,18.6c-0.3-0.6-0.6-1.1-0.9-1.7c-6.4-13.5-10.1-27-12.4-38.4
	C159.1,400.2,166.9,402.5,175.1,402.5L175.1,402.5z M199.9,431.9c5.1,6.3,11,11.7,17.4,16.2L204.2,481c-11.7-7.5-21.7-17.5-30-29.8
	L199.9,431.9z M232.8,456.6c9,3.7,19,6,29.7,6.8v35.1c-15.8-0.8-30.1-3.9-42.8-9.3L232.8,456.6z M280,463.4
	c10.7-0.8,20.7-3.1,29.7-6.8l13.1,32.7c-12.7,5.3-27,8.5-42.8,9.3L280,463.4L280,463.4z M338.3,481l-13.2-32.9
	c6.5-4.5,12.3-9.9,17.4-16.2l25.7,19.3C360,463.5,350,473.5,338.3,481L338.3,481z M378.2,433.8c-0.4,0.7-0.7,1.4-1.1,2.2l-24.8-18.6
	c2.7-4.9,5-10.1,7-15.7c2.7,0.5,5.5,0.8,8.2,0.8c8.1,0,16-2.3,22.9-6.6C388.1,407.1,384.4,420.4,378.2,433.8L378.2,433.8z
	 M184.9,41.4C157.5,65.5,140,100.7,140,140c0,18,1.8,36,5.3,53.7l3.4,17.2v10.9c0,22.4-8.8,45.2-25.4,65.9
	c-6.2,7.7-9.6,17.4-9.6,27.4c0,14.3,6.9,27.4,18.3,35.5c-0.4,2.1-0.6,4.3-0.6,6.4l-5.5,1.3c-27.8,6.5-47.2,31.1-47.2,59.6V445
	c-38.1-44.4-61.2-102-61.2-165C17.5,170.4,87.4,76.8,184.9,41.4L184.9,41.4z M96.3,463.5v-45.7c0-20.4,13.9-37.9,33.7-42.6l1.7-0.4
	c2.4,29.9,19.2,141.4,139.6,141.4s137.3-111.5,139.6-141.4l1.7,0.4c19.9,4.7,33.7,22.2,33.7,42.6v45.7
	c-45.6,43.5-107.2,70.3-175,70.3S141.8,507,96.3,463.5L96.3,463.5z"/>
<path d="M358.8,297.5h17.5V315h-17.5V297.5z"/>
<path d="M166.2,297.5h17.5V315h-17.5V297.5z"/>
</svg>
