<?xml version="1.0" encoding="utf-8"?>
<!-- Generator: Adobe Illustrator 24.3.0, SVG Export Plug-In . SVG Version: 6.00 Build 0)  -->
<svg version="1.1" id="Layer_1" xmlns="http://www.w3.org/2000/svg" xmlns:xlink="http://www.w3.org/1999/xlink" x="0px" y="0px"
	 viewBox="0 0 511.9 575.4" style="enable-background:new 0 0 511.9 575.4;" xml:space="preserve">
<path d="M429.4,113.8h-26.9c-4.3-29.6-29.8-52.5-60.6-52.5h-11.2l-11.5-34.6C315.6,16,305.6,8.8,294.3,8.8h-79.8
	c-11.3,0-21.3,7.2-24.9,17.9l-11.5,34.6h-11.2c-30.8,0-56.3,22.9-60.6,52.5H79.4c-14.5,0-26.2,11.8-26.2,26.2v17.5
	c0,14.5,11.8,26.2,26.2,26.2H89l30.9,293.3c2.2,20.5,18.2,36.3,38.3,38.7v9.2c0,14.5,11.8,26.2,26.2,26.2h140
	c14.5,0,26.2-11.8,26.2-26.2v-9.2c20-2.4,36.1-18.1,38.3-38.7l30.9-293.3h9.6c14.5,0,26.2-11.8,26.2-26.2V140
	C455.6,125.5,443.9,113.7,429.4,113.8L429.4,113.8z M166.9,78.8h23.8l15.5-46.5c1.2-3.6,4.5-6,8.3-6h79.8c3.8,0,7.1,2.4,8.3,6
	l15.5,46.5h23.8c21.1,0,38.8,15.1,42.9,35H124C128.1,93.8,145.8,78.8,166.9,78.8L166.9,78.8z M324.4,533.8h-140
	c-4.8,0-8.8-3.9-8.8-8.8v-8.8h157.5v8.8C333.1,529.8,329.2,533.8,324.4,533.8z M345.4,498.8h-182c-13.5,0-24.7-10.1-26.1-23.5
	l-1.2-11.5h236.6l-1.2,11.5C370.1,488.7,358.9,498.8,345.4,498.8L345.4,498.8z M374.5,446.2H134.2l-22.1-210h284.5L374.5,446.2z
	 M398.5,218.8H110.3l-3.7-35h295.6L398.5,218.8z M438.1,157.5c0,4.8-3.9,8.8-8.8,8.8h-350c-4.8,0-8.8-3.9-8.8-8.8V140
	c0-4.8,3.9-8.8,8.8-8.8h350c4.8,0,8.8,3.9,8.8,8.8V157.5z"/>
<path d="M184.4,253.8c-14.5,0-26.2,11.8-26.2,26.2v122.5c0,14.5,11.8,26.2,26.2,26.2s26.2-11.8,26.2-26.2V280
	C210.6,265.5,198.9,253.8,184.4,253.8z M193.1,402.5c0,4.8-3.9,8.8-8.8,8.8s-8.8-3.9-8.8-8.8V280c0-4.8,3.9-8.8,8.8-8.8
	s8.8,3.9,8.8,8.8V402.5z"/>
<path d="M254.4,253.8c-14.5,0-26.2,11.8-26.2,26.2v122.5c0,14.5,11.8,26.2,26.2,26.2s26.2-11.8,26.2-26.2V280
	C280.6,265.5,268.9,253.8,254.4,253.8z M263.1,402.5c0,4.8-3.9,8.8-8.8,8.8s-8.8-3.9-8.8-8.8V280c0-4.8,3.9-8.8,8.8-8.8
	s8.8,3.9,8.8,8.8V402.5z"/>
<path d="M324.4,253.8c-14.5,0-26.2,11.8-26.2,26.2v122.5c0,14.5,11.8,26.2,26.2,26.2s26.2-11.8,26.2-26.2V280
	C350.6,265.5,338.9,253.8,324.4,253.8z M333.1,402.5c0,4.8-3.9,8.8-8.8,8.8s-8.8-3.9-8.8-8.8V280c0-4.8,3.9-8.8,8.8-8.8
	s8.8,3.9,8.8,8.8V402.5z"/>
</svg>
