<?xml version="1.0" encoding="utf-8"?>
<!-- Generator: Adobe Illustrator 24.3.0, SVG Export Plug-In . SVG Version: 6.00 Build 0)  -->
<svg version="1.1" id="Layer_1" xmlns="http://www.w3.org/2000/svg" xmlns:xlink="http://www.w3.org/1999/xlink" x="0px" y="0px"
	 viewBox="0 0 457.8 546.7" style="enable-background:new 0 0 457.8 546.7;" xml:space="preserve">
<symbol  id="b" viewBox="-6.2 -9.8 12.4 19.7">
	<path d="M1.1-9.8v4.3h5V-2h-5v6.5c0,0.7,0.1,1.2,0.4,1.4s0.8,0.4,1.7,0.4h2.5v3.5H1.6c-1.9,0-3.3-0.4-4.1-1.2
		c-0.8-0.8-1.2-2.2-1.2-4.1V-2h-2.4v-3.5h2.4v-4.3H1.1z"/>
</symbol>
<path d="M326.4,524.1c-4.7,0.1-9-2.5-11.2-6.6l-34.7-63.6c-1.6-2.9-2-6.4-1.1-9.6c0.8-2.5,2.3-4.8,4.4-6.4c-4-5.1-9.3-9-15.4-11.2
	c-6.9-2.3-13-6.7-17.3-12.6c-4.3-5.9-6.7-13-6.8-20.3l-35.5-23.8c-6.7-0.3-13.2-1.4-19.6-3.4l-3.8-1.3l1.1-3.8v0
	c4.9-14.9,13.5-28.3,25.1-38.8l-25.8-17.2l4.7-6.9l7,4.7l-82.9-151.2c-1.3-2.6-1.7-5.5-1.1-8.3c-4.9,1.9-10.4,0.4-13.7-3.6
	c-3.3-4-3.7-9.7-1-14.1c-13.5-0.4-26.1-6.8-34.3-17.5C56.4,97.9,53.4,84.1,56.5,71c3.1-13.1,11.9-24.1,24.1-30
	c12.1-5.9,26.3-6,38.5-0.3c12.2,5.7,21.2,16.6,24.5,29.7c3.3,13.1,0.5,26.9-7.6,37.7c4.2,0.4,7.8,3,9.6,6.8c1.4,2.9,1.6,6.2,0.6,9.2
	c-0.5,1.3-1.2,2.5-2,3.6c2.4,1.1,4.3,3,5.6,5.3l83.2,151.8l-0.4-9.5l8.3-0.3l1.3,31.1h0c14.7-4.2,30.2-4.5,45-0.8l3.6,1.1l-0.6,3.6
	c-1.3,6.4-3.5,12.7-6.5,18.5l1.4,44.8h0c5.7,4.2,10,9.9,12.4,16.6c2.4,6.6,2.7,13.8,0.9,20.7c-1.4,6.3-1.1,12.8,1.1,18.9
	c2.6-1,5.4-1.1,8.1-0.3c3.2,0.9,5.9,3.1,7.6,6l34.7,63.4c1.6,2.9,2,6.4,1.1,9.6c-0.9,3.2-3.1,5.9-6,7.5l-12.5,6.8
	C330.6,523.4,328.5,524,326.4,524.1L326.4,524.1z M321.6,511.6l1.1,2l0,0c0.5,1,1.4,1.7,2.4,2c1.1,0.3,2.2,0.2,3.2-0.3l12.5-6.8
	c2-1.1,2.7-3.6,1.7-5.6l-1.1-2L321.6,511.6z M314.3,498.4l3.2,5.6l20-10.7l-3.2-5.6L314.3,498.4z M307.1,485.1l3.2,5.9l19.8-10.9
	l-3.2-5.9L307.1,485.1z M299.9,472.1l3.1,5.6l19.8-10.9l-3-5.6L299.9,472.1z M295.1,441.3L295.1,441.3c2.7,7.1,3.6,14.8,2.7,22.4
	l15.9-8.7h0c-6.9-3.3-13-8.2-17.6-14.3L295.1,441.3z M288,445.9L288,445.9c-0.2,0.3-0.4,0.6-0.4,1c-0.3,1.1-0.2,2.2,0.3,3.2l1.7,3.2
	h0c-0.2-2.5-0.8-5-1.6-7.4L288,445.9z M304,436.8c1.6,2.2,3.5,4.3,5.6,6l-2.1-3.8c-0.5-1-1.4-1.7-2.5-2
	C304.7,436.9,304.3,436.9,304,436.8L304,436.8z M247.1,363.3l8.1,15l-0.6,1.7c-0.4,1.2-9.6,28.7,16.8,39.2h0
	c7.9,2.8,14.8,8,19.7,14.8l0.9-0.5c-3.2-7.8-3.8-16.5-1.9-24.7c5.6-27.7-22.7-34.8-23.9-35.1l-1.8-0.4l-8.3-14.9l-2.9,1.7
	C251.2,361.4,249.2,362.4,247.1,363.3L247.1,363.3z M223.3,369.6l21.6,14.8v0c0.3-1.9,0.7-3.8,1.2-5.6l-6.8-12.7v0
	C234.1,367.8,228.7,369,223.3,369.6L223.3,369.6z M269.9,365.9c2.2,0.6,4.3,1.4,6.3,2.4l-0.8-27.3c-3.6,4.7-7.8,8.9-12.4,12.6
	L269.9,365.9z M196.2,359.9c14.5,3.2,29.6,2.3,43.6-2.6h-1.5c-5.8,0-11.4-2.3-15.5-6.4c-4.1-4.1-6.4-9.7-6.4-15.5c0-2,0.3-4,0.8-6
	C208,337.8,200.8,348.3,196.2,359.9L196.2,359.9z M238.2,321.8L238.2,321.8c-5.5,0-10.4,3.3-12.5,8.4c-2.1,5.1-0.9,10.9,2.9,14.8
	c3.9,3.9,9.7,5,14.8,2.9c5.1-2.1,8.4-7,8.4-12.5c0-3.6-1.4-7-4-9.6C245.3,323.2,241.8,321.8,238.2,321.8L238.2,321.8z M243.8,314.1
	c7.1,1.9,12.7,7.2,15,14.2c2.3,6.9,1.1,14.6-3.3,20.4c12-9,20.8-21.8,25-36.2c-12.1-2.2-24.6-1.6-36.5,1.7L243.8,314.1z
	 M215.8,315.6l2.4,1.6l0,0c2.3-1.6,4.6-3.1,7.1-4.5c2.5-1.4,5.2-2.7,7.8-3.8v-3c-0.8,0.7-1.7,1.4-2.6,1.8l-12.4,6.8h0
	c-0.6,0.4-1.2,0.7-1.8,1L215.8,315.6z M205.1,300.1l3.1,5.6l0,0c1.1,2,3.6,2.7,5.6,1.7l3.9-2.1L205.1,300.1z M225.6,289.5l-2,12.9
	l3.2-1.8v0c2-1.1,2.7-3.6,1.7-5.6L225.6,289.5z M207.8,291.9l8.3,3.4l1.3-8.9l-8.3-3.5L207.8,291.9z M138.3,135.1
	c-0.7,0-1.4,0.2-2,0.5l-12.5,6.8c-1,0.5-1.7,1.4-2,2.5c-0.3,1.1-0.2,2.2,0.3,3.2l77.4,141.2l2.8-18.4l16.8,7.1L142,137
	c-0.5-1-1.4-1.7-2.5-2c-0.4-0.1-0.8-0.2-1.2-0.2L138.3,135.1z M134.5,116.6L134.5,116.6c-0.5,0-1.1,0.1-1.6,0.3l-25.6,12.4h0
	c-1.8,0.9-2.6,3.1-1.7,5c0.9,1.8,3.1,2.6,4.9,1.7l25.4-12.9c0.9-0.4,1.5-1.2,1.8-2.1c0.4-0.9,0.4-1.9,0-2.9
	c-0.4-0.9-1.2-1.6-2.1-1.8c-0.4-0.1-0.8-0.1-1.2,0L134.5,116.6z M100,45.3c-9.6-0.1-18.9,3.7-25.7,10.4c-6.9,6.8-10.7,16-10.8,25.6
	c-0.1,9.6,3.7,18.9,10.5,25.7c6.8,6.8,16,10.7,25.6,10.7c9.6,0,18.9-3.8,25.7-10.6c6.8-6.8,10.6-16,10.6-25.7
	c0-9.6-3.8-18.7-10.5-25.5C118.7,49.2,109.6,45.3,100,45.3L100,45.3z M281.9,415.8L256,404.6l4.6-27.7l26,11.2L281.9,415.8z
	 M265.1,399.3l10,4.4l1.8-10.9l-10-4.2L265.1,399.3z M238,344.2c-3.6,0-6.8-2.2-8.2-5.5c-1.4-3.3-0.6-7.2,1.9-9.7s6.4-3.3,9.7-1.9
	c3.3,1.4,5.5,4.6,5.5,8.2c0,4.8-3.9,8.8-8.7,8.9L238,344.2z M238,334.8c-0.3,0-0.5,0.2-0.5,0.5c0,0.6,1,0.6,1,0
	c0-0.2-0.1-0.4-0.3-0.5H238z M85.6,85.7c-4,0-7.8-1.6-10.7-4.4c-2.8-2.8-4.4-6.6-4.4-10.6c0-4,1.6-7.8,4.4-10.7
	c2.8-2.8,6.7-4.4,10.7-4.4c4,0,7.8,1.6,10.7,4.4c2.8,2.8,4.4,6.7,4.4,10.7c0,4-1.6,7.8-4.4,10.6C93.4,84.1,89.6,85.7,85.6,85.7
	L85.6,85.7z M85.6,64c-2.7,0-5.2,1.6-6.2,4.1c-1,2.5-0.5,5.4,1.4,7.3c1.9,1.9,4.8,2.5,7.3,1.4c2.5-1,4.1-3.5,4.1-6.2
	C92.2,67,89.2,64,85.6,64z"/>
<g>
	<defs>
		<rect id="SVGID_1_" x="266" y="672" width="700" height="700"/>
	</defs>
	<clipPath id="SVGID_2_">
		<use xlink:href="#SVGID_1_"  style="overflow:visible;"/>
	</clipPath>
	<g style="clip-path:url(#SVGID_2_);">
		
			<use xlink:href="#b"  width="12.4" height="19.7" x="-6.2" y="-9.8" transform="matrix(1 0 0 1 272.5876 662.1721)" style="overflow:visible;"/>
	</g>
</g>
</svg>
