<?xml version="1.0" encoding="utf-8"?>
<!-- Generator: Adobe Illustrator 24.3.0, SVG Export Plug-In . SVG Version: 6.00 Build 0)  -->
<svg version="1.1" id="Layer_1" xmlns="http://www.w3.org/2000/svg" xmlns:xlink="http://www.w3.org/1999/xlink" x="0px" y="0px"
	 viewBox="0 0 700 587.8" style="enable-background:new 0 0 700 587.8;" xml:space="preserve">
<path d="M606.3,123.6c9.5-9.5,14.9-22.6,14.9-36.1s-5.4-26.6-14.9-36.1l-27.8-27.8c-9.5-9.5-22.6-14.9-36.1-14.9
	s-26.6,5.4-36.1,14.9l-365,365L78.7,531.9v19.3h350c14.5,0,26.2-11.8,26.2-26.2s-11.8-26.2-26.2-26.2h-61.2c-4.8,0-8.8-3.9-8.8-8.8
	s3.9-8.8,8.8-8.8h201.2v-17.5H367.5c-14.5,0-26.2,11.8-26.2,26.2s11.8,26.2,26.2,26.2h61.2c4.8,0,8.8,3.9,8.8,8.8s-3.9,8.8-8.8,8.8
	H138.1l103.2-45.1L606.3,123.6z M508.3,196.9l-13.9,13.9l-75.1-75.1l13.9-13.9L508.3,196.9z M445.5,109.4l13.9-13.9l75.1,75.1
	l-13.9,13.9L445.5,109.4z M425.1,166.3L179.4,412l-18.3-18.3L406.9,148L425.1,166.3z M437.5,178.6l13.9,13.9L205.6,438.3l-13.9-13.9
	L437.5,178.6z M463.7,204.9l18.3,18.3L236.3,468.9L218,450.6L463.7,204.9z M518.8,36.1c6.2-6.2,14.9-9.8,23.7-9.8s17.4,3.6,23.7,9.8
	l27.8,27.8c6.2,6.2,9.8,14.9,9.8,23.7s-3.6,17.4-9.8,23.7l-47.1,47.1l-75.1-75.1L518.8,36.1z M151.6,409l69.4,69.4l-68,29.8
	L121.9,477L151.6,409z M114.3,494.2l21.4,21.4l-38.1,16.7L114.3,494.2z"/>
</svg>
