<?xml version="1.0" encoding="utf-8"?>
<!-- Generator: Adobe Illustrator 24.3.0, SVG Export Plug-In . SVG Version: 6.00 Build 0)  -->
<svg version="1.1" id="Layer_1" xmlns="http://www.w3.org/2000/svg" xmlns:xlink="http://www.w3.org/1999/xlink" x="0px" y="0px"
	 viewBox="0 0 546.2 546" style="enable-background:new 0 0 546.2 546;" xml:space="preserve">
<path d="M546.2,47.4L498.8,0L232,266.8l-103.8,21.8C89,296.8,48.9,301,8.8,301H0v8.8C0,440.1,106,546,236.2,546h8.8v-8.8
	c0-40,4.2-80.2,12.4-119.4l22-103.7L546.2,47.4z M261.9,312.6l-3,14.3c-21.1-1.8-37.7-18.5-39.6-39.6l14.3-3L261.9,312.6z
	 M248.8,274.8l13.9-13.9l22.6,22.6l-13.9,13.9L248.8,274.8z M521.5,47.4L297.6,271.2L275,248.6L498.8,24.7L521.5,47.4z M240.4,414.3
	c-7.9,37.5-12.2,75.8-12.7,114.1C114,523.9,22.3,432.2,17.8,318.5c38.3-0.6,76.6-4.9,114.1-12.7l70-14.7
	c3.4,27.8,25.5,49.9,53.3,53.3L240.4,414.3z"/>
<path d="M90.2,443.6l105-105l12.4,12.4l-105,105L90.2,443.6z"/>
<path d="M167,499.2l41.2-110l16.4,6.1l-41.2,110L167,499.2z"/>
<path d="M213.8,374.2l5.6-15l16.4,6.1l-5.6,15L213.8,374.2z"/>
<path d="M40.8,362.8l140-52.5l6.1,16.4l-140,52.5L40.8,362.8z"/>
<path d="M56.5,407.5l78.8-52.5l9.7,14.6l-78.8,52.5L56.5,407.5z"/>
<path d="M124.1,479.9l52.5-78.8l14.6,9.7l-52.5,78.8L124.1,479.9z"/>
</svg>
