<?xml version="1.0" encoding="utf-8"?>
<!-- Generator: Adobe Illustrator 24.3.0, SVG Export Plug-In . SVG Version: 6.00 Build 0)  -->
<svg version="1.1" id="Layer_1" xmlns="http://www.w3.org/2000/svg" xmlns:xlink="http://www.w3.org/1999/xlink" x="0px" y="0px"
	 viewBox="0 0 542.5 551.2" style="enable-background:new 0 0 542.5 551.2;" xml:space="preserve">
<path d="M236.2,175c0,4.8-3.9,8.8-8.8,8.8s-8.8-3.9-8.8-8.8s3.9-8.8,8.8-8.8S236.2,170.2,236.2,175"/>
<path d="M323.8,175c0,4.8-3.9,8.8-8.8,8.8s-8.8-3.9-8.8-8.8s3.9-8.8,8.8-8.8S323.8,170.2,323.8,175"/>
<path d="M271.2,262.5c19.3,0,35-15.7,35-35h-17.5c0,9.7-7.8,17.5-17.5,17.5s-17.5-7.8-17.5-17.5h-17.5
	C236.2,246.8,251.9,262.5,271.2,262.5z"/>
<path d="M306.2,428.8h17.5v17.5h-17.5V428.8z"/>
<path d="M271.2,8.8C121.7,8.8,0,130.4,0,280s121.7,271.2,271.2,271.2S542.5,429.6,542.5,280S420.8,8.8,271.2,8.8z M199,523.2
	c-5.1-1.5-10.2-3.2-15.2-5v-30.8l-6.8-10.3c-7-10.5-10.7-22.6-10.7-35.2s3.7-24.8,10.7-35.2l6.8-10.3V385h-17.5v6.1l-3.9,5.8
	c-8.1,12.1-12.5,26.1-13.3,40.6h-41.9c-17.6-9.6-28.4-27.7-28.4-47.9v-4.4c0-24.2,19.7-44,43.9-44c4.7,0,9.4,0.8,13.9,2.3l20.4,6.8
	l19.9-4.4c0,4.4,1.1,8.8,3.4,12.9c4.9,8.4,13.7,13.1,22.8,13.1c0.9,0,1.8-0.3,2.7-0.4c-1.1,10.1,3.6,20.3,12.9,25.7
	c4.1,2.4,8.6,3.5,13.1,3.5c5.5,0,10.9-1.9,15.4-5.2c4,9.3,13.3,15.8,24,15.8c5.3,0,10.3-1.6,14.4-4.3
	c-22.7,38.9-49.4,75.3-79.9,108.9L199,523.2z M113.8,455h36.1c1.9,11.3,6,22.1,12.5,31.8l3.9,5.8v18.3
	c-18.8-8.6-36.5-19.4-52.5-32.2L113.8,455z M201.2,208.9v-14.2c0-24.4,14.5-46.4,36.9-56c13.3-5.7,24.7-14.9,33.1-26.7
	c8.4,11.8,19.8,21,33.1,26.7c22.4,9.6,36.9,31.6,36.9,56v14.2c0,6.4-0.3,12.8-0.7,19.1c-4.6,34.2-33.9,60.7-69.3,60.7
	s-64.7-26.5-69.3-60.7C201.5,221.7,201.2,215.3,201.2,208.9L201.2,208.9z M219.1,312.4l8.4-2.8v7.1l-7.1,1.6
	C219.9,316.4,219.3,314.5,219.1,312.4L219.1,312.4z M224.3,370.1l4.7-8.1c4.6,3.5,9.7,6.5,15.1,8.8l-4.6,8.1
	c-2.4,4.2-7.8,5.6-12,3.2C223.3,379.6,221.9,374.3,224.3,370.1L224.3,370.1z M262.5,375.6c2.9,0.4,5.8,0.6,8.8,0.6s5.9-0.2,8.8-0.6
	v9.4c0,4.8-3.9,8.8-8.8,8.8s-8.8-3.9-8.8-8.8V375.6z M271.2,358.7c-18.4,0-34.5-9.7-43.9-24.1l17.6-3.9v-28.6c8.3,2.6,17.1,4,26.2,4
	s18-1.4,26.2-4v28.6l17.6,3.9C305.7,349.1,289.7,358.7,271.2,358.7L271.2,358.7z M224.1,292.3l-9.9,3.3l-3.5-13.9
	C214.8,285.7,219.3,289.2,224.1,292.3L224.1,292.3z M215.6,348.5l-8.1,4.7c-4.2,2.4-9.6,1-12-3.2c-2.4-4.2-1-9.5,3.2-12l8.1-4.7
	C209,338.8,212,343.9,215.6,348.5L215.6,348.5z M297.5,385v-13.9c3.5-1.4,6.8-3.2,10-5.1c-3.3,6.7-6.6,13.3-10.1,19.8
	C297.4,385.5,297.5,385.3,297.5,385L297.5,385z M315,316.7v-7.1l8.4,2.8c-0.2,2-0.8,3.9-1.2,5.9L315,316.7z M318.4,292.3
	c4.8-3.1,9.3-6.6,13.4-10.6l-3.5,13.9L318.4,292.3z M358,229.8c0.5-3.6,0.8-7.3,0.8-11h-0.2c0.1-3.3,0.2-6.6,0.2-9.8v-14.2
	c0-31.4-18.7-59.7-47.5-72.1c-10.9-4.7-20.1-12.3-26.7-22.2l-4.5-6.8V70h-17.5v23.6l-4.6,6.8c-6.6,9.9-15.8,17.5-26.7,22.2
	c-28.9,12.4-47.5,40.7-47.5,72.1v14.2c0,3.3,0.1,6.6,0.2,9.8h-0.2c0,3.8,0.3,7.4,0.8,11.1c0.6,9.4,1.7,18.7,3.2,27.9
	c-13.6-14.8-21.5-34.5-21.5-55v-71.5c0-54.9,42.4-100.1,96.3-104.6v25.8H280V26.7c53.8,4.5,96.2,49.6,96.2,104.6v71.5
	c0,20.5-7.9,40.2-21.5,55C356.3,248.5,357.3,239.2,358,229.8L358,229.8z M131.3,105c0-4.8,3.9-8.8,8.8-8.8s8.8,3.9,8.8,8.8
	s-3.9,8.8-8.8,8.8S131.3,109.8,131.3,105z M148.8,140c0,4.8-3.9,8.8-8.8,8.8s-8.8-3.9-8.8-8.8s3.9-8.8,8.8-8.8
	S148.8,135.2,148.8,140z M140,166.3c4.8,0,8.8,3.9,8.8,8.8s-3.9,8.8-8.8,8.8s-8.8-3.9-8.8-8.8S135.2,166.3,140,166.3z M120.6,157.5
	c-4.2,4.7-6.8,10.8-6.8,17.5c0,14.5,11.8,26.2,26.2,26.2c3.1,0,6-0.6,8.8-1.6v3.1c0,18.1,5.2,35.6,14.2,50.7
	c-1.8,0.1-3.6,0.3-5.5,0.3c-38.6,0-70-31.4-70-70c0-23.3,11.4-44.6,30.3-57.6c-2.5,4-4.1,8.8-4.1,13.9
	C113.8,146.7,116.4,152.8,120.6,157.5L120.6,157.5z M17.5,280C17.5,168.4,90,73.5,190.3,39.6c-14.2,12.5-25.5,28.3-32.6,46.1
	c-4.7-4.3-10.8-6.9-17.6-6.9c-14.5,0-26.2,11.8-26.2,26.2c0,1,0.2,2,0.3,3C86.9,123.6,70,152.2,70,183.8c0,48.2,39.3,87.5,87.5,87.5
	c5.9,0,11.7-0.7,17.4-1.8c6.4,7,13.6,13.1,21.9,18.1l14.9,9l-10.4,3.5v6.3c0,3.3,0.3,6.5,0.8,9.7l-12.1,7c-1.6,0.9-3,2-4.4,3.2
	l-27.6,6.1l-15.8-5.3c-6.3-2.1-12.8-3.1-19.4-3.1c-33.9,0-61.4,27.6-61.4,61.4v4.4c0,25.6,13.3,48.6,35,61.6v12.3
	C47.8,417.2,17.5,352.1,17.5,280L17.5,280z M218.2,528.1l0.5-0.6c50.5-55.5,90.8-118.6,120.1-187.6l35.3,7.8l-5,17.6
	c-17.4,61.1-45.9,117.5-84.4,168c-4.4,0.2-8.9,0.4-13.4,0.4C253.1,533.7,235.3,531.8,218.2,528.1L218.2,528.1z M370.5,415.7
	c3.7,8.2,5.7,17.1,5.7,26.2c0,12.6-3.7,24.8-10.7,35.2l-6.8,10.3v30.8c-16.2,6-33.1,10.3-50.6,12.8
	C333.8,495.2,354.7,456.6,370.5,415.7L370.5,415.7z M376.3,492.6l3.9-5.8c6.4-9.7,10.6-20.5,12.5-31.8l36.1,0v23.7
	c-16,12.7-33.7,23.6-52.5,32.2L376.3,492.6z M435.4,437.5h-41.9c-0.8-14.5-5.2-28.4-13.3-40.6l-1.8-2.7c2.7-7.9,5.2-15.9,7.5-24
	l6.3-22.1l13.8-4.6c4.5-1.5,9.2-2.3,13.9-2.3c24.2,0,43.9,19.7,43.9,43.9v4.4C463.8,409.7,452.9,427.9,435.4,437.5L435.4,437.5z
	 M446.3,463.5v-12.3c21.7-13,35-36,35-61.6v-4.4c0-33.9-27.6-61.5-61.4-61.5c-6.6,0-13.2,1.1-19.4,3.1l-15.8,5.3l-45.2-10
	c1.2-5.1,1.9-10.4,1.9-15.9v-6.3l-10.4-3.5l14.9-9c29.6-17.8,48-50.2,48-84.8v-71.5c0-36.5-16.1-69.2-41.5-91.7
	C452.5,73.5,525,168.4,525,280C525,352.1,494.7,417.2,446.3,463.5L446.3,463.5z"/>
</svg>
