<?xml version="1.0" encoding="utf-8"?>
<!-- Generator: Adobe Illustrator 24.3.0, SVG Export Plug-In . SVG Version: 6.00 Build 0)  -->
<svg version="1.1" id="Layer_1" xmlns="http://www.w3.org/2000/svg" xmlns:xlink="http://www.w3.org/1999/xlink" x="0px" y="0px"
	 viewBox="0 0 559.2 592.3" style="enable-background:new 0 0 559.2 592.3;" xml:space="preserve">
<path d="M257.2,192.5c0,4.8-3.9,8.8-8.8,8.8s-8.8-3.9-8.8-8.8s3.9-8.8,8.8-8.8S257.2,187.7,257.2,192.5"/>
<path d="M309.7,192.5c0,4.8-3.9,8.8-8.8,8.8s-8.8-3.9-8.8-8.8s3.9-8.8,8.8-8.8S309.7,187.7,309.7,192.5"/>
<path d="M256.2,214.8l-15.7,7.8l0.9,1.8c6.3,12.6,19,20.5,33.2,20.5s26.8-7.8,33.2-20.5l0.9-1.8l-15.7-7.8l-0.9,1.9
	c-3.3,6.7-10,10.8-17.5,10.8s-14.2-4.1-17.5-10.8L256.2,214.8z"/>
<path d="M427.5,364c-2-11.6-6.5-22.4-12.8-32.1V148.7c0-77.2-62.8-140-140-140s-140,62.8-140,140v183.1
	c-6.3,9.7-10.8,20.5-12.8,32.1L89.3,551.2h370.8L427.5,364z M439.3,533.8h-49.6l-15.5-89c3.4-9.9,5.4-20.3,5.4-30.9
	c0-14.5-3.4-29.1-9.9-42.1l-4.9-9.8l31.3-26.1c7.2,9,12.1,19.5,14.1,31L439.3,533.8z M188.3,471l3.5,5.9c2.7,4.4,4.1,9.5,4.1,14.7
	c0,3.6-0.7,7.2-2,10.6l-12.6,31.6h-3.8L188.3,471z M206.9,467.9l-8.8-14.6c-7.1-11.9-10.9-25.5-10.9-39.4c0-11.8,2.8-23.7,8.1-34.2
	l3-6.1l50.6,42.1c1.6,9.4,8.3,17,17,20.2v97.9h-65.8l10-25.1c2.2-5.5,3.3-11.2,3.3-17.1C213.4,483.2,211.1,475,206.9,467.9
	L206.9,467.9z M204.7,245c0,4.8-3.9,8.8-8.8,8.8s-8.8-3.9-8.8-8.8s3.9-8.8,8.8-8.8S204.7,240.2,204.7,245z M250.7,64.7l4.6,22.8
	c-2.8,3.1-4.9,6.9-5.9,11.1c-3.2,0.9-6.2,2-9.1,3.3L219.3,81C228.4,73.6,239.1,68,250.7,64.7L250.7,64.7z M330,81l-20.8,20.8
	c-2.9-1.3-6-2.4-9.1-3.3c-1.1-4.2-3.1-7.9-5.9-11.1l4.6-22.8C310.3,68,320.9,73.6,330,81L330,81z M299.8,148.7
	c-2-8.5-6.3-16.2-10.4-22c3.8-2.6,6.8-6.2,8.8-10.4c14.4,5.1,25,17.5,28,32.4L299.8,148.7z M249.5,148.7h-26.4
	c3-15,13.6-27.3,28-32.4c2,4.2,5,7.8,8.8,10.4C255.8,132.5,251.5,140.2,249.5,148.7L249.5,148.7z M204.7,166.2
	c-6.4,0-12.3,1.9-17.5,4.9v-22.4c0-4.4,0.4-8.7,1.1-12.9l18.2,7.3c-1.1,4.6-1.7,9.4-1.7,14.4L204.7,166.2z M283.4,105
	c0,3.8-2.4,6.9-5.7,8.1l-3-3l-3,3c-3.3-1.2-5.7-4.4-5.7-8.1c0-4.8,3.9-8.8,8.8-8.8S283.4,100.2,283.4,105z M274.7,136.2
	c4.3,6,8.8,14.1,8.8,21.3c0,4.8-3.9,8.8-8.8,8.8s-8.8-3.9-8.8-8.8C265.9,150.2,270.4,142.1,274.7,136.2z M362.2,148.7v22.4
	c-5.2-3-11.1-4.9-17.5-4.9v-8.8c0-5-0.6-9.8-1.7-14.4l18.2-7.3C361.7,140.1,362.2,144.4,362.2,148.7L362.2,148.7z M362.2,245
	c0,4.8-3.9,8.8-8.8,8.8s-8.8-3.9-8.8-8.8s3.9-8.8,8.8-8.8S362.2,240.2,362.2,245z M344.7,218.7h-0.6c0.4-2.9,0.6-5.8,0.6-8.8v-26.2
	c9.7,0,17.5,7.8,17.5,17.5S354.3,218.7,344.7,218.7z M336.5,126.8c-3.3-5.7-7.5-10.8-12.4-15.2l18.3-18.3c6.1,7.5,11,16.1,14.4,25.3
	L336.5,126.8z M277.9,79.1c-1.1-0.1-2.1-0.3-3.3-0.3s-2.2,0.2-3.3,0.3l-3.5-17.5c2.2-0.2,4.5-0.3,6.8-0.3s4.5,0.2,6.8,0.3
	L277.9,79.1z M207,93.4l18.3,18.3c-4.9,4.4-9.1,9.5-12.4,15.2l-20.3-8.1C196,109.5,200.8,100.9,207,93.4L207,93.4z M204.7,183.7V210
	c0,3,0.2,5.9,0.6,8.8h-0.6c-9.7,0-17.5-7.8-17.5-17.5S195,183.7,204.7,183.7z M222.2,166.2H250c3.6,10.2,13.2,17.5,24.6,17.5
	c11.4,0,21-7.3,24.6-17.5h27.9V210c0,29-23.5,52.5-52.5,52.5s-52.5-23.5-52.5-52.5V166.2z M274.7,280c3,0,5.9-0.2,8.8-0.6v35.3
	c-1.8,0.2-3.5,0.3-5.3,0.3h-6.9c-1.8,0-3.6-0.1-5.3-0.3v-35.3C268.8,279.8,271.7,280,274.7,280z M300.9,274.8c1-0.4,2-0.9,3-1.3
	c3.2,10.7,8.2,19.1,12.1,24.2c-4.3,4.9-9.4,8.9-15.1,11.8L300.9,274.8L300.9,274.8z M248.4,274.8v34.6c-5.7-2.9-10.8-6.9-15.1-11.8
	c3.8-5.1,8.9-13.5,12.1-24.2C246.4,274,247.4,274.4,248.4,274.8L248.4,274.8z M218.4,307c12.8,16,32.1,25.5,52.8,25.5h6.9
	c20.7,0,40-9.5,52.8-25.5l10.7,1.8l-62.7,76.6c-1.4-0.2-2.8-0.4-4.2-0.4s-2.9,0.2-4.3,0.4l-62.7-76.6L218.4,307z M296.3,396.4
	c-0.6-0.8-1.2-1.5-1.9-2.3l66.7-81.5c8.1,2.3,15.8,5.9,22.5,11L296.3,396.4z M274.7,420c-4.8,0-8.8-3.9-8.8-8.8s3.9-8.8,8.8-8.8
	s8.8,3.9,8.8,8.8S279.5,420,274.7,420z M188.2,312.6l66.7,81.5c-0.6,0.7-1.3,1.5-1.9,2.3l-87.3-72.8
	C172.5,318.6,180.1,314.9,188.2,312.6L188.2,312.6z M283.4,435.9c8.8-3.1,15.4-10.8,17-20.2l50.6-42.1l3,6.1
	c5.3,10.6,8.1,22.4,8.1,34.2c0,13.9-3.8,27.5-10.9,39.4l-8.8,14.6c-4.3,7.1-6.6,15.3-6.6,23.7c0,5.9,1.1,11.6,3.3,17.1l10,25.1
	h-65.8L283.4,435.9z M355.5,502.2c-1.4-3.4-2-7-2-10.6c0-5.2,1.4-10.2,4.1-14.7l3.5-5.9l10.9,62.7h-3.8L355.5,502.2z M397.2,148.7
	V312c-11.7-9.6-25.5-16-40.6-18.5l-24.9-4.1c-3.1-3.8-9.7-13.1-12.2-25.6c3.4-2.9,6.6-6.1,9.5-9.6c3.7,9.9,13.3,17.1,24.5,17.1
	c14.5,0,26.2-11.8,26.2-26.2c0-8.1-3.7-15.2-9.4-20c5.8-6.2,9.4-14.6,9.4-23.7v-52.5c0-45.2-28.8-83.7-68.9-98.5l15.7-12.4
	C368.2,57.5,397.2,99.7,397.2,148.7L397.2,148.7z M307.3,30.8l-17.9,14.1c-4.8-0.7-9.7-1.1-14.7-1.1s-9.9,0.5-14.7,1.1l-17.9-14.1
	c10.4-2.9,21.3-4.5,32.6-4.5S296.9,27.9,307.3,30.8L307.3,30.8z M222.8,37.9l15.7,12.4c-40.1,14.8-68.9,53.3-68.9,98.5v52.5
	c0,9.2,3.6,17.5,9.4,23.7c-5.7,4.8-9.4,12-9.4,20c0,14.5,11.8,26.2,26.2,26.2c11.2,0,20.8-7.1,24.5-17.1c2.8,3.5,6,6.7,9.5,9.6
	c-2.5,12.5-9.1,21.8-12.2,25.6l-24.9,4.1c-15.1,2.5-29,8.9-40.6,18.5V148.7C152.2,99.7,181.2,57.5,222.8,37.9L222.8,37.9z
	 M139.1,367c2-11.5,6.9-22,14.1-31l31.3,26.1l-4.9,9.8c-6.5,13-9.9,27.5-9.9,42.1c0,10.6,2,21,5.5,30.9l-15.5,89h-49.6L139.1,367z"
	/>
</svg>
